<?xml version="1.0" standalone="no"?>
<!DOCTYPE svg PUBLIC "-//W3C//DTD SVG 20010904//EN"
 "http://www.w3.org/TR/2001/REC-SVG-20010904/DTD/svg10.dtd">
<svg version="1.0" xmlns="http://www.w3.org/2000/svg"
 width="2048.000000pt" height="2048.000000pt" viewBox="0 0 2048.000000 2048.000000"
 preserveAspectRatio="xMidYMid meet">
<metadata>
Created by potrace 1.14, written by Peter Selinger 2001-2017
</metadata>
<g transform="translate(0.000000,2048.000000) scale(0.100000,-0.100000)"
fill="#000000" stroke="none">
<path d="M9848 20475 c-2 -2 -66 -6 -143 -9 -77 -4 -162 -8 -190 -11 -27 -2
-84 -7 -125 -10 -92 -8 -104 -9 -315 -30 -22 -2 -56 -6 -75 -9 -52 -7 -120
-16 -171 -22 -24 -3 -55 -7 -69 -10 -27 -5 -67 -11 -127 -19 -21 -3 -74 -12
-118 -20 -44 -8 -97 -17 -119 -21 -48 -7 -49 -7 -171 -33 -55 -11 -111 -23
-125 -25 -14 -3 -25 -5 -25 -6 0 -1 -13 -4 -30 -6 -23 -4 -234 -54 -410 -98
-28 -7 -117 -32 -270 -76 -653 -189 -1297 -450 -1922 -781 -196 -104 -525
-295 -678 -394 -319 -206 -521 -347 -725 -505 -47 -36 -116 -90 -155 -120 -38
-29 -72 -56 -75 -59 -3 -3 -41 -35 -85 -71 -44 -35 -82 -67 -85 -70 -3 -3 -39
-34 -80 -69 -283 -241 -706 -654 -930 -910 -36 -40 -74 -83 -85 -95 -90 -99
-299 -352 -390 -471 -148 -194 -193 -255 -285 -385 -22 -30 -43 -59 -47 -65
-5 -5 -50 -73 -101 -150 -51 -77 -97 -147 -102 -155 -13 -19 -196 -318 -211
-344 -6 -10 -19 -33 -29 -50 -128 -221 -184 -327 -315 -591 -448 -902 -742
-1801 -915 -2790 -16 -93 -32 -192 -35 -220 -4 -27 -8 -57 -10 -65 -2 -8 -7
-40 -11 -70 -3 -30 -8 -66 -10 -80 -9 -68 -14 -110 -19 -160 -3 -30 -8 -77
-11 -105 -7 -62 -11 -117 -19 -220 -3 -44 -8 -93 -10 -110 -26 -197 -26 -1291
0 -1447 2 -13 6 -63 9 -111 4 -48 8 -109 11 -135 3 -26 7 -72 10 -102 10 -90
16 -141 26 -220 5 -42 12 -94 14 -115 3 -22 7 -51 10 -65 5 -26 13 -82 20
-135 3 -29 30 -185 40 -235 3 -14 9 -50 15 -80 6 -30 12 -66 15 -80 13 -60 27
-127 31 -150 23 -127 143 -591 203 -790 108 -359 281 -837 376 -1045 7 -17 18
-41 23 -55 44 -112 282 -610 361 -754 16 -28 44 -80 63 -116 59 -109 88 -160
172 -300 45 -74 83 -139 85 -145 2 -5 16 -28 31 -50 15 -22 38 -58 52 -80 39
-62 202 -309 208 -315 3 -3 25 -34 49 -70 42 -61 280 -384 314 -426 9 -10 55
-68 104 -129 48 -60 90 -112 93 -115 3 -3 43 -50 90 -105 46 -55 97 -113 112
-130 14 -16 36 -41 48 -55 213 -247 768 -787 1007 -980 10 -8 57 -47 103 -86
47 -38 108 -88 135 -110 28 -21 52 -41 55 -44 3 -3 23 -18 45 -35 22 -16 42
-32 45 -35 20 -24 424 -312 605 -431 81 -54 333 -213 395 -250 216 -128 440
-250 680 -369 85 -43 180 -89 210 -103 154 -71 228 -104 370 -163 85 -36 175
-74 200 -84 173 -73 579 -213 855 -294 105 -31 204 -61 222 -67 18 -5 40 -12
50 -14 10 -2 83 -20 163 -40 80 -20 156 -39 170 -41 14 -3 52 -11 85 -19 113
-27 480 -98 598 -115 37 -5 95 -14 130 -19 34 -6 85 -13 112 -16 28 -4 61 -8
75 -11 14 -2 50 -6 80 -9 30 -3 69 -7 85 -10 17 -2 57 -6 90 -10 33 -3 78 -8
100 -10 22 -2 69 -7 105 -10 36 -2 93 -7 127 -10 330 -27 1121 -27 1453 -1 25
2 83 7 130 11 47 3 99 8 115 10 17 2 59 7 95 10 36 3 79 7 95 9 17 2 59 7 95
11 36 4 72 9 81 10 9 2 40 6 70 10 30 3 61 8 69 10 8 2 37 7 63 10 58 6 214
32 277 45 25 5 61 12 80 14 19 3 46 8 60 11 14 3 36 7 50 10 47 9 75 15 95 19
11 3 63 14 115 25 53 11 161 36 240 56 80 21 150 38 155 39 79 20 454 130 580
171 313 102 679 243 990 382 277 124 604 289 838 422 20 11 54 31 75 42 229
130 556 339 817 522 94 66 396 292 440 329 34 28 100 82 136 110 19 14 45 36
59 48 14 12 47 40 75 63 212 179 389 343 614 567 177 177 342 352 474 504 29
33 57 64 62 70 29 30 245 296 327 401 778 1000 1381 2175 1729 3370 22 77 47
161 55 187 17 55 89 344 110 443 9 39 17 77 19 85 7 30 43 206 48 235 3 17 10
55 17 85 6 30 13 71 16 90 3 19 7 46 10 60 8 43 11 64 18 111 4 25 9 57 11 70
2 13 9 60 15 104 6 44 13 91 15 105 2 14 7 54 10 90 4 36 8 72 10 80 2 8 6 49
9 90 4 41 9 86 11 100 2 14 7 70 11 125 3 55 8 118 10 140 26 326 25 1198 -1
1434 -2 20 -7 70 -10 111 -7 105 -14 178 -20 225 -2 22 -7 67 -10 100 -4 33
-8 71 -10 85 -3 14 -7 50 -11 80 -3 30 -8 64 -10 74 -2 11 -8 56 -14 100 -12
87 -35 230 -55 341 -5 23 -55 269 -90 440 -8 39 -86 350 -95 380 -5 17 -16 55
-24 85 -112 409 -311 972 -461 1305 -12 28 -44 100 -71 160 -85 193 -350 716
-415 820 -14 22 -28 47 -32 55 -7 16 -12 24 -132 221 -44 72 -84 138 -90 148
-29 49 -101 156 -107 159 -5 2 -8 7 -8 12 0 8 -28 50 -167 253 -120 174 -435
581 -558 722 -14 17 -45 52 -68 80 -39 46 -128 146 -151 171 -6 6 -51 55 -101
110 -194 211 -565 573 -755 734 -36 30 -67 57 -70 60 -14 16 -241 204 -300
250 -25 19 -47 37 -50 40 -11 14 -334 253 -460 341 -202 142 -601 399 -671
432 -8 4 -27 16 -44 26 -16 10 -82 48 -145 83 -798 449 -1652 788 -2541 1008
-114 28 -215 53 -225 55 -33 7 -368 74 -399 80 -16 2 -41 7 -55 10 -14 2 -70
11 -125 20 -55 9 -111 18 -125 20 -48 8 -308 42 -380 50 -117 13 -139 15 -195
20 -124 11 -152 14 -250 21 -55 3 -122 8 -150 10 -61 5 -952 13 -957 9z"/>
</g>
</svg>
